# xmcd
# 
# Track frame offsets:
#	150
#	11156
#	24842
#	37363
#	49655
#	65084
#	79238
#	89563
#	100741
#	114968
#	125485
#	137881
#
# Disc length: 1956 seconds
#
# Revision: 1
# Processed by: cddbd v1.4PL0 Copyright (c) Steve Scherf et al.
# Submitted via: Audio-CD-Archiv 2.10.438
#
DISCID=a407a20c
DTITLE=Various Artist - The Very Best Of Country And Western CD1
DYEAR=1900
DGENRE=country
TTITLE0=Just In Case A Night Like This - Bobby Bare
TTITLE1=Ruby Tuesday - Don Williams
TTITLE2=Papa And Mama - Billy Gramar
TTITLE3=I Hate To See Me Go - Al Terry
TTITLE4=Love Him Tender - David Price
TTITLE5=Doogie Ray - George Kent
TTITLE6=Don't Knock it Till You've Tried It - Rick Johnson
TTITLE7=Spend Some Time With Me - Don Williams
TTITLE8=Hello Wine - Bobby Lord
TTITLE9=Rosie's Leavin - Ronnie Rogers
TTITLE10=How Come It Tock So Long To say Goodbye - Rick Pilgreen
TTITLE11=Six Days On The Road
EXTD=
EXTT0=
EXTT1=
EXTT2=
EXTT3=
EXTT4=
EXTT5=
EXTT6=
EXTT7=
EXTT8=
EXTT9=
EXTT10=
EXTT11=
PLAYORDER=
